<svg id="visual" viewBox="0 0 900 600" width="900" height="600" xmlns="http://www.w3.org/2000/svg" xmlns:xlink="http://www.w3.org/1999/xlink" version="1.1"><g stroke-width="1" stroke-linejoin="bevel"><path d="M464 258L556 248L485 217Z" fill="#ea5e6d" stroke="#ea5e6d"></path><path d="M464 258L450 356L556 248Z" fill="#b24978" stroke="#b24978"></path><path d="M556 248L554 142L485 217Z" fill="#0d1c30" stroke="#0d1c30"></path><path d="M450 356L583 370L556 248Z" fill="#ea5e6d" stroke="#ea5e6d"></path><path d="M556 248L626 146L554 142Z" fill="#723e71" stroke="#723e71"></path><path d="M554 142L529 120L485 217Z" fill="#00101c" stroke="#00101c"></path><path d="M379 147L387 330L464 258Z" fill="#b24978" stroke="#b24978"></path><path d="M379 147L464 258L485 217Z" fill="#723e71" stroke="#723e71"></path><path d="M464 258L387 330L450 356Z" fill="#924377" stroke="#924377"></path><path d="M708 219L626 146L556 248Z" fill="#533866" stroke="#533866"></path><path d="M554 142L626 146L529 120Z" fill="#723e71" stroke="#723e71"></path><path d="M529 120L379 147L485 217Z" fill="#d05175" stroke="#d05175"></path><path d="M583 370L708 219L556 248Z" fill="#1f2744" stroke="#1f2744"></path><path d="M387 330L382 417L450 356Z" fill="#723e71" stroke="#723e71"></path><path d="M450 356L547 461L583 370Z" fill="#723e71" stroke="#723e71"></path><path d="M278 309L382 417L387 330Z" fill="#373056" stroke="#373056"></path><path d="M417 502L547 461L450 356Z" fill="#00101c" stroke="#00101c"></path><path d="M583 370L739 363L708 219Z" fill="#ea5e6d" stroke="#ea5e6d"></path><path d="M529 120L447 50L379 147Z" fill="#533866" stroke="#533866"></path><path d="M504 0L447 50L529 120Z" fill="#ff6f61" stroke="#ff6f61"></path><path d="M417 502L562 481L547 461Z" fill="#d05175" stroke="#d05175"></path><path d="M547 461L562 481L583 370Z" fill="#b24978" stroke="#b24978"></path><path d="M379 147L278 309L387 330Z" fill="#533866" stroke="#533866"></path><path d="M562 481L739 363L583 370Z" fill="#723e71" stroke="#723e71"></path><path d="M648 0L529 120L626 146Z" fill="#ff6f61" stroke="#ff6f61"></path><path d="M648 0L504 0L529 120Z" fill="#533866" stroke="#533866"></path><path d="M739 363L749 353L708 219Z" fill="#00101c" stroke="#00101c"></path><path d="M249 51L264 161L379 147Z" fill="#b24978" stroke="#b24978"></path><path d="M379 147L264 161L278 309Z" fill="#924377" stroke="#924377"></path><path d="M504 0L450 0L447 50Z" fill="#723e71" stroke="#723e71"></path><path d="M349 548L417 502L382 417Z" fill="#0d1c30" stroke="#0d1c30"></path><path d="M382 417L417 502L450 356Z" fill="#ea5e6d" stroke="#ea5e6d"></path><path d="M249 51L379 147L447 50Z" fill="#1f2744" stroke="#1f2744"></path><path d="M716 544L752 364L739 363Z" fill="#373056" stroke="#373056"></path><path d="M739 363L752 364L749 353Z" fill="#ff6f61" stroke="#ff6f61"></path><path d="M749 353L777 246L708 219Z" fill="#924377" stroke="#924377"></path><path d="M708 219L723 66L626 146Z" fill="#1f2744" stroke="#1f2744"></path><path d="M900 328L777 246L749 353Z" fill="#1f2744" stroke="#1f2744"></path><path d="M789 159L723 66L708 219Z" fill="#ff6f61" stroke="#ff6f61"></path><path d="M723 66L648 0L626 146Z" fill="#1f2744" stroke="#1f2744"></path><path d="M264 161L220 218L278 309Z" fill="#1f2744" stroke="#1f2744"></path><path d="M242 384L271 427L278 309Z" fill="#ea5e6d" stroke="#ea5e6d"></path><path d="M278 309L271 427L382 417Z" fill="#b24978" stroke="#b24978"></path><path d="M777 246L789 159L708 219Z" fill="#ff6f61" stroke="#ff6f61"></path><path d="M216 350L242 384L278 309Z" fill="#0d1c30" stroke="#0d1c30"></path><path d="M723 66L675 0L648 0Z" fill="#0d1c30" stroke="#0d1c30"></path><path d="M220 218L216 350L278 309Z" fill="#533866" stroke="#533866"></path><path d="M242 384L180 447L271 427Z" fill="#373056" stroke="#373056"></path><path d="M789 159L761 72L723 66Z" fill="#ff6f61" stroke="#ff6f61"></path><path d="M723 66L823 0L675 0Z" fill="#373056" stroke="#373056"></path><path d="M264 161L203 133L220 218Z" fill="#ea5e6d" stroke="#ea5e6d"></path><path d="M220 218L154 316L216 350Z" fill="#924377" stroke="#924377"></path><path d="M249 51L203 133L264 161Z" fill="#00101c" stroke="#00101c"></path><path d="M264 0L249 51L447 50Z" fill="#00101c" stroke="#00101c"></path><path d="M271 427L349 548L382 417Z" fill="#0d1c30" stroke="#0d1c30"></path><path d="M417 502L493 600L562 481Z" fill="#373056" stroke="#373056"></path><path d="M349 600L349 548L347 600Z" fill="#b24978" stroke="#b24978"></path><path d="M349 600L493 600L417 502Z" fill="#533866" stroke="#533866"></path><path d="M562 481L716 544L739 363Z" fill="#0d1c30" stroke="#0d1c30"></path><path d="M493 600L545 600L562 481Z" fill="#ea5e6d" stroke="#ea5e6d"></path><path d="M545 600L716 544L562 481Z" fill="#d05175" stroke="#d05175"></path><path d="M752 364L900 328L749 353Z" fill="#723e71" stroke="#723e71"></path><path d="M450 0L264 0L447 50Z" fill="#1f2744" stroke="#1f2744"></path><path d="M249 51L185 0L203 133Z" fill="#ea5e6d" stroke="#ea5e6d"></path><path d="M100 247L154 316L220 218Z" fill="#00101c" stroke="#00101c"></path><path d="M216 350L180 447L242 384Z" fill="#924377" stroke="#924377"></path><path d="M347 600L349 548L151 600Z" fill="#ff6f61" stroke="#ff6f61"></path><path d="M349 548L349 600L417 502Z" fill="#924377" stroke="#924377"></path><path d="M180 447L349 548L271 427Z" fill="#ea5e6d" stroke="#ea5e6d"></path><path d="M154 316L180 447L216 350Z" fill="#d05175" stroke="#d05175"></path><path d="M716 544L841 452L752 364Z" fill="#00101c" stroke="#00101c"></path><path d="M777 246L900 177L789 159Z" fill="#ea5e6d" stroke="#ea5e6d"></path><path d="M841 452L900 328L752 364Z" fill="#723e71" stroke="#723e71"></path><path d="M900 97L823 0L761 72Z" fill="#ea5e6d" stroke="#ea5e6d"></path><path d="M900 328L900 177L777 246Z" fill="#d05175" stroke="#d05175"></path><path d="M761 72L823 0L723 66Z" fill="#924377" stroke="#924377"></path><path d="M900 97L761 72L789 159Z" fill="#00101c" stroke="#00101c"></path><path d="M76 141L100 247L203 133Z" fill="#0d1c30" stroke="#0d1c30"></path><path d="M203 133L100 247L220 218Z" fill="#533866" stroke="#533866"></path><path d="M154 316L76 362L180 447Z" fill="#924377" stroke="#924377"></path><path d="M264 0L185 0L249 51Z" fill="#00101c" stroke="#00101c"></path><path d="M900 177L900 97L789 159Z" fill="#0d1c30" stroke="#0d1c30"></path><path d="M716 544L757 600L841 452Z" fill="#b24978" stroke="#b24978"></path><path d="M545 600L753 600L716 544Z" fill="#373056" stroke="#373056"></path><path d="M753 600L757 600L716 544Z" fill="#0d1c30" stroke="#0d1c30"></path><path d="M900 554L900 455L841 452Z" fill="#00101c" stroke="#00101c"></path><path d="M841 452L900 455L900 328Z" fill="#723e71" stroke="#723e71"></path><path d="M185 0L144 0L203 133Z" fill="#00101c" stroke="#00101c"></path><path d="M0 328L76 362L100 247Z" fill="#0d1c30" stroke="#0d1c30"></path><path d="M100 247L76 362L154 316Z" fill="#00101c" stroke="#00101c"></path><path d="M180 447L151 600L349 548Z" fill="#373056" stroke="#373056"></path><path d="M144 0L76 141L203 133Z" fill="#ea5e6d" stroke="#ea5e6d"></path><path d="M900 97L900 0L823 0Z" fill="#00101c" stroke="#00101c"></path><path d="M76 362L99 520L180 447Z" fill="#373056" stroke="#373056"></path><path d="M757 600L900 554L841 452Z" fill="#723e71" stroke="#723e71"></path><path d="M99 520L151 600L180 447Z" fill="#ff6f61" stroke="#ff6f61"></path><path d="M99 520L141 600L151 600Z" fill="#b24978" stroke="#b24978"></path><path d="M0 97L0 199L76 141Z" fill="#00101c" stroke="#00101c"></path><path d="M76 141L0 199L100 247Z" fill="#373056" stroke="#373056"></path><path d="M76 362L0 457L99 520Z" fill="#723e71" stroke="#723e71"></path><path d="M0 199L0 328L100 247Z" fill="#533866" stroke="#533866"></path><path d="M757 600L900 600L900 554Z" fill="#533866" stroke="#533866"></path><path d="M0 328L0 406L76 362Z" fill="#b24978" stroke="#b24978"></path><path d="M99 520L0 600L141 600Z" fill="#00101c" stroke="#00101c"></path><path d="M144 0L0 97L76 141Z" fill="#924377" stroke="#924377"></path><path d="M0 406L0 457L76 362Z" fill="#373056" stroke="#373056"></path><path d="M144 0L0 0L0 97Z" fill="#ea5e6d" stroke="#ea5e6d"></path><path d="M0 457L0 600L99 520Z" fill="#1f2744" stroke="#1f2744"></path></g></svg>